<svg width="41" height="41" viewBox="0 0 41 41" fill="none" xmlns="http://www.w3.org/2000/svg">
<path d="M40.0824 8.46643L40.0824 11.1386C40.0824 16.0403 36.1231 20.0172 31.2281 20.0457C36.1231 20.0741 40.0824 24.051 40.0824 28.9527L40.0824 31.6249L37.4102 31.6249C32.4909 31.6249 28.503 27.637 28.503 22.7177L28.503 17.3736C28.503 12.4543 32.4909 8.46643 37.4102 8.46643L40.0824 8.46643Z" fill="#9BBDD4"/>
<path d="M2.76435e-06 31.625L2.64755e-06 28.9528C2.43329e-06 24.0512 3.95933 20.0743 8.8543 20.0458C3.95933 20.0173 0 16.0404 0 11.1387L0 8.46655H2.67216C7.59148 8.46655 11.5794 12.4544 11.5794 17.3738L11.5794 22.7178C11.5794 27.6371 7.59149 31.625 2.67217 31.625H2.76435e-06Z" fill="#9BBDD4"/>
<path d="M8.46741 1.75206e-06L11.1396 1.75206e-06C16.0412 1.75206e-06 20.0182 3.95933 20.0466 8.8543C20.0751 3.95933 24.052 -3.31063e-07 28.9537 -1.16804e-07L31.6259 0L31.6259 2.67216C31.6259 7.59148 27.638 11.5794 22.7186 11.5794L17.3746 11.5794C12.4553 11.5794 8.46741 7.59148 8.46741 2.67217L8.46741 1.75206e-06Z" fill="#9BBDD4"/>
<path fill-rule="evenodd" clip-rule="evenodd" d="M28.9537 40.0869L31.6259 40.0869L31.6259 37.4147C31.6259 32.4954 27.638 28.5075 22.7186 28.5075L17.3746 28.5075C12.4553 28.5075 8.46741 32.4954 8.46741 37.4147L8.46741 40.0869L11.1396 40.0869C16.0412 40.0869 20.0182 36.1276 20.0466 31.2326C20.0751 36.1276 24.052 40.0869 28.9537 40.0869ZM20.0414 25.8346C23.2389 25.8346 25.8311 23.2424 25.8311 20.0449C25.8311 16.8473 23.2389 14.2552 20.0414 14.2552C16.8438 14.2552 14.2517 16.8473 14.2517 20.0449C14.2517 23.2424 16.8438 25.8346 20.0414 25.8346Z" fill="#515D82"/>
</svg>
