<svg width="96" height="97" viewBox="0 0 96 97" fill="none" xmlns="http://www.w3.org/2000/svg">
<path d="M96 20.2763L96 26.6763C96 38.4161 86.5172 47.941 74.7934 48.0092C86.5172 48.0774 96 57.6024 96 69.3422L96 75.7422L89.6 75.7422C77.8179 75.7422 68.2667 66.1909 68.2667 54.4089L68.2667 41.6096C68.2667 29.8275 77.8179 20.2763 89.6 20.2763L96 20.2763Z" fill="#D2DEEA"/>
<path d="M6.62079e-06 75.7433L6.34104e-06 69.3433C5.82788e-06 57.6035 9.48285 48.0785 21.2066 48.0103C9.48285 47.9421 2.55736e-06 38.4171 0 26.6773L0 20.2773H6.4C18.1821 20.2773 27.7333 29.8286 27.7333 41.6107L27.7333 54.4099C27.7333 66.192 18.1821 75.7433 6.40001 75.7433H6.62079e-06Z" fill="#D2DEEA"/>
<path d="M20.2799 4.1963e-06L26.6799 4.1963e-06C38.4197 4.1963e-06 47.9447 9.48285 48.0129 21.2066C48.0811 9.48284 57.6061 1.76444e-06 69.3459 -2.79753e-07L75.7458 0L75.7458 6.4C75.7458 18.1821 66.1946 27.7333 54.4125 27.7333L41.6133 27.7333C29.8312 27.7333 20.2799 18.1821 20.2799 6.4L20.2799 4.1963e-06Z" fill="#D2DEEA"/>
<path fill-rule="evenodd" clip-rule="evenodd" d="M69.3459 96.0101L75.7458 96.0101L75.7459 89.6101C75.7459 77.8281 66.1946 68.2768 54.4125 68.2768L41.6133 68.2768C29.8312 68.2768 20.2799 77.8281 20.2799 89.6101L20.2799 96.0101L26.6799 96.0101C38.4197 96.0101 47.9447 86.5273 48.0129 74.8035C48.0811 86.5273 57.6061 96.0101 69.3459 96.0101ZM48.0003 61.8748C55.6586 61.8748 61.867 55.6665 61.867 48.0082C61.867 40.3498 55.6586 34.1415 48.0003 34.1415C40.342 34.1415 34.1336 40.3498 34.1336 48.0082C34.1336 55.6665 40.342 61.8748 48.0003 61.8748Z" fill="white"/>
</svg>
