<?xml version="1.0" standalone="no"?>
<!DOCTYPE svg PUBLIC "-//W3C//DTD SVG 20010904//EN"
 "http://www.w3.org/TR/2001/REC-SVG-20010904/DTD/svg10.dtd">
<svg version="1.0" xmlns="http://www.w3.org/2000/svg"
 width="41.000000pt" height="41.000000pt" viewBox="0 0 41.000000 41.000000"
 preserveAspectRatio="xMidYMid meet">
<metadata>
Created by potrace 1.16, written by Peter Selinger 2001-2019
</metadata>
<g transform="translate(0.000000,41.000000) scale(0.100000,-0.100000)"
fill="#000000" stroke="none">
<path d="M115 95 c-16 -15 -25 -35 -25 -56 0 -30 1 -31 32 -25 35 7 68 32 68
53 0 7 5 13 10 13 6 0 10 -6 10 -13 0 -21 33 -46 68 -53 31 -6 32 -5 32 25 0
21 -9 41 -25 56 -35 36 -135 36 -170 0z"/>
</g>
</svg>
